# xmcd CD database file
#
# Track frame offsets:
#	150
#	12824
#	57447
#	82511
#	105010
#	139811
#	164953
#	198040
#	222018
#
# Disc length: 3465 seconds
#
# Revision: 0
# Processed by: cddbd v1.5.2PL0 Copyright (c) Steve Scherf et al.
# Submitted via: CDex 1.77
#
DISCID=680d8709
DTITLE=Christian McBride - New Jawn
DYEAR=2017
DGENRE=Jazz
TTITLE0=Walkin' Funny
TTITLE1=Ke-Kelli Sketch
TTITLE2=Ballad of Ernie Washington
TTITLE3=The Middle Man
TTITLE4=Pier One Import
TTITLE5=Kush
TTITLE6=Seek the Source
TTITLE7=John Day
TTITLE8=Sightseeing
EXTD=YEAR: 2017
EXTT0=
EXTT1=
EXTT2=
EXTT3=
EXTT4=
EXTT5=
EXTT6=
EXTT7=
EXTT8=
PLAYORDER=
